<svg width="221" height="302" viewBox="0 0 221 302" fill="none" xmlns="http://www.w3.org/2000/svg">
<rect x="-1.38193" y="-1.78668" width="224" height="301" fill="white" stroke="black" stroke-width="4"/>
<mask id="mask0_0_142" style="mask-type:alpha" maskUnits="userSpaceOnUse" x="-4" y="-4" width="229" height="306">
<rect x="-1.38193" y="-1.78668" width="224" height="301" fill="white" stroke="white" stroke-width="4"/>
</mask>
<g mask="url(#mask0_0_142)">
<rect x="120.38" y="204.961" width="55.8865" height="68.7984" fill="#FDEA6B"/>
<path fill-rule="evenodd" clip-rule="evenodd" d="M104.079 137.669C110.104 133.083 125.228 131.02 131.657 135.436C138.008 139.87 138.7 147.041 141.66 153.637C144.452 152.321 149.063 154.206 149.872 156.796C150.876 158.017 150.921 161.449 151.614 163.091C181.739 167.885 186.313 191.364 189.939 218.019C194.736 245.067 205.625 272.057 200.898 299.89C201.514 300.781 202 301.647 202.449 302.675C203.525 304.506 202.139 307.096 199.968 306.996C197.159 306.749 194.378 306.413 191.555 306.308C183.731 306.036 175.9 306.068 168.073 306.168L167.006 306.182C127.56 306.673 88.1163 307.64 48.6687 307.896C47.2376 307.899 46.537 306.615 46.728 305.35C47.1129 302.802 47.4699 300.252 47.8426 297.703C38.5122 300.166 28.5932 300.786 19.2892 297.962C18.6384 297.299 20.8057 297.658 21.1496 297.558C12.587 291.708 15.1441 279.386 15.9026 270.511C20.619 240.101 22.2817 206.454 40.5044 180.504C48.3878 169.913 59.9456 161.529 73.2263 159.642L73.5948 159.592C77.478 159.074 81.8059 158.908 85.2011 156.796C89.0198 153.748 90.6471 148.117 94.6644 148.065C95.991 148.047 97.7956 149.725 99.7375 150.864C99.8825 148.358 101.233 146.244 101.531 144.301L101.556 144.135C101.867 141.87 101.441 139.832 104.079 137.669ZM168.822 218.823C160.356 212.943 138.486 215.897 137.985 216.227C136.883 216.951 136.408 217.016 135.812 217.957C135.223 218.035 134.635 218.116 134.048 218.199C132.869 218.584 133.742 220.034 135.104 219.517C134.285 223.048 136.696 225.559 137.655 229.05C137.967 230.184 137.666 232.222 137.655 233.381C137.748 234.857 139.381 236.602 139.109 238.083C138.142 243.35 132.89 248.488 135.104 253.596C136.571 256.481 140.982 257.952 143.915 258.933C149.992 261.264 160.579 258.845 164.11 253.596C165.993 250.796 168.175 243.734 169.298 241.543L169.547 238.068C170.16 229.43 170.706 220.131 168.822 218.823Z" fill="#D08B5B"/>
<path fill-rule="evenodd" clip-rule="evenodd" d="M94.3512 148.08L96.7741 149.567L110.845 156.52C113.573 157.284 114.937 158.199 114.937 159.265V170.127C114.937 171.58 117.497 174.874 122.617 180.009L127.347 175.295L127.241 174.678C126.791 172.019 126.566 170.24 126.566 169.341C126.566 168.375 131.194 164.707 140.449 158.337L144.498 154.526L144.066 153.214C146.562 153.331 149.27 154.868 149.872 156.796C150.876 158.017 150.921 161.449 151.614 163.091C181.739 167.885 186.313 191.364 189.939 218.019C194.736 245.068 205.625 272.057 200.898 299.89C201.514 300.781 202 301.647 202.449 302.676C203.525 304.506 202.139 307.096 199.968 306.996C197.159 306.749 194.378 306.413 191.555 306.308C183.731 306.036 175.9 306.068 168.073 306.168L167.006 306.182C127.56 306.673 88.1163 307.64 48.6687 307.897C47.2376 307.899 46.537 306.616 46.728 305.35C47.1129 302.802 47.4699 300.252 47.8426 297.703C38.5122 300.166 28.5932 300.786 19.2892 297.962C18.6384 297.299 20.8057 297.658 21.1496 297.558C12.587 291.708 15.1441 279.387 15.9026 270.512C20.619 240.101 22.2817 206.454 40.5044 180.504C48.3878 169.914 59.9456 161.529 73.2263 159.642L73.5948 159.592L73.9659 159.544C77.7519 159.062 81.9137 158.84 85.2011 156.796C88.919 153.829 90.5596 148.413 94.3512 148.08ZM128.068 211.83C126.688 211.83 123.861 213.973 119.588 218.258L119.212 218.432C114.047 220.83 110.625 222.91 108.947 224.673L108.887 224.737C107.191 226.555 103.833 231.39 98.8136 239.243L91.5443 243.54H88.7938L86.8355 257.74L91.5443 267.879L102.21 264.288L119.588 259.708L129.561 249.595L135.186 247.707C134.503 249.678 134.256 251.639 135.104 253.596C136.571 256.481 140.982 257.952 143.915 258.933C149.992 261.264 160.579 258.845 164.11 253.596C165.993 250.796 168.175 243.734 169.298 241.543L169.62 237.029C170.2 228.699 170.631 220.079 168.822 218.823C160.356 212.943 138.486 215.897 137.985 216.227C136.883 216.951 136.408 217.016 135.812 217.957L135.503 217.998L137.239 215.645L136.625 215.317C132.24 212.992 129.387 211.83 128.068 211.83ZM135.104 219.517C134.32 222.897 136.496 225.343 137.525 228.609L134.896 223.577L134.896 219.582C134.964 219.565 135.033 219.544 135.104 219.517Z" fill="#9DDADB"/>
<path fill-rule="evenodd" clip-rule="evenodd" d="M93.1894 147.555C93.7739 147.038 94.6388 147.688 94.2674 148.387C93.4327 149.958 92.5766 151.446 91.4564 152.835C90.7773 153.677 90.0498 154.473 89.3125 155.261C91.2046 156.897 92.8272 158.928 94.3596 160.832C96.3191 163.267 98.1716 165.806 100.371 168.034C102.54 170.231 104.939 171.767 107.839 172.792L108.425 172.995C111.338 174.017 114.452 175.398 116.095 178.156C116.418 178.7 115.766 179.372 115.218 179.032C112.365 177.266 109.012 176.911 105.905 175.744C102.905 174.616 100.289 172.881 97.9781 170.667C95.6709 168.456 93.7336 165.941 91.7129 163.478C89.7147 161.044 87.5632 158.965 85.1996 156.905C81.5522 159.358 77.3888 160.425 73.1553 161.473L72.6932 161.588C68.4546 162.637 64.2387 163.855 60.2623 165.682C56.7563 167.292 53.3079 169.216 50.4521 171.836C47.4206 174.617 45.0611 178.17 42.9016 181.643C38.0709 189.415 34.6748 197.93 31.685 206.547C28.5753 215.511 25.9743 224.655 23.8745 233.907C22.8066 238.613 21.9392 243.352 21.2264 248.125C20.8832 250.424 20.5784 252.727 20.3107 255.036C20.0249 257.501 19.9593 260.037 19.2027 262.408C18.8784 263.424 18.1126 263.845 17.346 263.809L17.1903 265.756C16.9839 268.351 16.7914 270.947 16.7264 273.559C16.6186 277.901 16.6675 282.23 16.9799 286.563L17.0241 287.154C17.2697 290.316 17.8183 293.869 20.197 296.185C22.6604 298.583 26.4487 299.337 29.769 299.38C37.502 299.481 44.9459 295.829 51.789 292.624C58.8365 289.324 65.6915 285.661 72.3823 281.688C75.7897 279.665 79.1602 277.574 82.4878 275.423C84.1207 274.367 85.7421 273.293 87.3513 272.201C88.2731 271.576 89.1466 270.891 90.0849 270.337C89.6251 269.909 89.4199 269.236 89.805 268.648C87.0924 266.294 85.9635 262.094 85.8314 258.695C85.7248 255.952 86.1287 253.216 86.4474 250.499C86.6082 249.129 86.8069 247.761 87.0131 246.396C87.0946 245.857 87.1568 245.281 87.252 244.712C79.9275 248.736 72.3977 252.319 64.6685 255.503C60.7067 257.135 56.6941 258.602 52.6261 259.946L51.8015 260.217C47.9471 261.479 44.0004 262.67 40.0157 263.391C39.8027 263.43 39.6296 263.115 39.8571 263.015C43.7403 261.302 47.7581 259.857 51.6997 258.28L52.3474 258.016V258.016C52.2729 258.012 52.1958 258.002 52.1153 257.983C49.8037 257.425 47.5101 256.565 45.2429 255.842C43.1388 255.17 40.7747 254.748 38.8079 253.734C38.6566 253.656 38.7413 253.446 38.8887 253.436C41.0993 253.283 43.499 253.927 45.6664 254.306L46.4806 254.448C47.8445 254.689 49.2388 254.947 50.5961 255.284C50.6451 254.83 50.8992 254.373 51.2606 254.106C55.2378 251.161 54.8339 245.214 55.2593 240.829L55.5747 237.573C56.1296 231.875 56.7165 226.178 57.6083 220.523C57.6558 220.221 58.1232 220.308 58.1251 220.593C58.1711 227.603 57.6418 234.581 57.3764 241.58L57.3353 242.729C57.1886 247.048 57.0737 251.532 54.3527 254.855C54.7331 254.633 55.2476 254.633 55.5558 255C55.9346 255.45 56.1532 255.956 56.1464 256.453C58.6052 255.422 61.0532 254.365 63.4893 253.286C71.3214 249.817 78.9894 245.936 86.4545 241.735C87.2579 241.283 88.0215 241.639 88.4188 242.235L88.4761 242.226C88.4857 242.225 88.4954 242.224 88.5054 242.224L88.5623 242.221C88.5645 242.221 88.5667 242.222 88.5686 242.222C89.6195 241.644 91.0511 242.055 91.9528 242.897C91.9794 242.923 92.0021 242.95 92.0258 242.977C93.1675 242.465 94.2334 241.773 95.2008 240.896C97.1805 239.103 98.8574 236.885 100.319 234.661C103.011 230.565 105.298 226.01 108.935 222.638C111.889 219.898 115.552 218.193 119.395 217.122C119.379 217.01 119.422 216.89 119.5 216.811C119.697 216.608 119.838 216.538 120.093 216.661C120.113 216.671 120.125 216.685 120.134 216.699L120.509 216.059C120.713 215.711 120.924 215.361 120.996 215.269C121.433 214.72 121.882 214.175 122.338 213.641C123.111 212.738 123.991 211.847 125.011 211.22C127.244 209.849 129.592 210.625 131.888 211.374C133.275 211.827 134.657 212.295 136.042 212.755L136.185 212.802C137.217 213.133 138.426 213.423 138.887 214.517C139.07 214.95 139.098 215.399 139.013 215.835C148.82 213.341 159.712 214.487 169.282 217.413C169.649 217.526 170.016 217.828 170.093 218.224C171.19 223.846 171.678 229.61 171.182 235.327C170.754 240.262 169.66 245.098 167.599 249.616L167.482 249.872C165.545 254.059 162.475 259.22 157.786 260.533C154.955 261.325 151.823 260.858 148.936 260.713C146.129 260.571 143.261 260.551 140.481 260.11C138.006 259.717 135.836 258.608 134.307 256.595C132.987 254.859 132.292 252.761 131.722 250.674C131.462 250.757 131.203 250.845 130.948 250.945C129.872 251.365 128.961 252.042 128.137 252.84C126.397 254.524 125.048 256.57 123.228 258.177C121.58 259.632 119.702 260.764 117.688 261.634C113.514 263.436 109.037 264.157 104.623 265.112L104.315 265.179C100.991 265.908 97.5991 266.803 94.6656 268.533C94.6083 269.042 94.3762 269.521 94.0043 269.835C94.5217 270.321 94.7408 271.09 94.2862 271.812C93.0162 273.827 90.8286 274.973 88.8648 276.261L88.737 276.346C86.8052 277.626 84.8565 278.881 82.8919 280.11C78.8981 282.61 74.8208 284.972 70.6859 287.23C64.0354 290.862 57.2422 294.288 50.3259 297.396C50.741 299.437 50.5894 301.543 50.9014 303.598L50.9492 303.891C51.0825 304.654 50.9025 305.292 50.3769 305.79L50.3213 305.841L50.3223 305.835L50.273 305.88L50.2565 305.893L50.262 305.889C50.2014 305.945 50.1389 305.996 50.0752 306.041L49.994 306.093V306.093C49.4878 306.4 48.8361 306.397 48.3178 306.125L48.2586 306.093L48.159 306.036C47.4742 305.642 47.002 304.666 47.2861 303.891C47.9843 301.986 48.2481 299.953 48.8929 298.036L48.3814 298.264V298.264L47.7072 298.558C40.4156 301.71 32.3161 304.364 24.3714 302.216C20.861 301.266 17.5801 299.257 15.8237 295.983C14.0954 292.761 13.8511 289.02 13.7593 285.436C13.6461 281.013 13.8833 276.522 14.4668 272.137C14.8585 269.193 15.3322 266.193 16.0629 263.28C15.687 262.949 15.4108 262.473 15.3378 261.884C14.993 259.102 15.5965 256.209 15.966 253.441C16.3269 250.738 16.7257 248.041 17.1767 245.352C18.0872 239.922 19.1452 234.503 20.3769 229.136C22.5689 219.585 25.4635 210.203 28.9485 201.045L29.2537 200.248C32.474 191.877 36.2026 183.686 41.3946 176.332C43.8782 172.815 46.5037 169.625 50.0131 167.09C53.3008 164.715 57.0094 163.004 60.8365 161.697C64.6678 160.389 68.6057 159.512 72.6132 158.967C76.6831 158.413 80.9791 158.074 84.7757 156.405C84.2954 155.544 84.7076 154.382 85.5159 153.849C88.236 152.052 90.7514 149.715 93.1894 147.555ZM180.266 225.678C180.38 225.505 180.651 225.615 180.601 225.819C179.278 231.238 178.036 236.667 177.225 242.189C175.761 252.154 176.03 262.251 176.15 272.29L176.156 272.809C176.218 278.217 176.303 283.625 176.482 289.031C176.572 291.763 176.751 294.522 176.654 297.255C176.601 298.738 176.205 300.14 176.065 301.605C175.943 302.887 176.052 304.187 176.113 305.47C176.154 306.323 174.895 306.287 174.809 305.47L174.7 304.414C174.557 303.077 174.382 301.749 173.943 300.47C173.417 298.931 173.164 297.42 172.981 295.804C172.701 293.329 172.576 290.828 172.468 288.335L172.394 286.611C171.943 276.192 171.959 265.725 172.69 255.318L172.743 254.574C173.466 244.737 174.721 234.107 180.266 225.678ZM152.066 163.675C151.72 163.533 151.841 163.011 152.224 163.102L152.92 163.268C158.019 164.489 163.026 165.812 167.785 168.084C172.548 170.357 176.58 173.751 179.784 177.924C186.012 186.036 188.6 195.895 190.643 205.744C192.914 216.689 194.981 227.673 197.271 238.614L197.697 240.653C199.816 250.843 201.817 261.039 203.291 271.35L203.397 272.098C204.884 282.701 205.778 293.671 204.156 304.302C203.835 306.405 200.334 305.882 200.471 303.804C200.866 297.797 201.149 291.821 200.876 285.8C200.602 279.778 200.037 273.783 199.195 267.814C198.486 262.79 197.429 257.83 196.494 252.846L196.348 252.059C195.565 247.821 194.758 243.586 193.952 239.352L192.749 233.011C190.945 223.518 189.106 214.016 187.028 204.582L186.905 204.027C184.871 194.951 181.873 185.444 175.773 178.237C169.583 170.922 160.722 167.239 152.066 163.675ZM129.573 259.944C129.722 259.612 130.242 259.648 130.402 259.944C131.03 261.101 131.099 262.578 131.218 263.884L131.231 264.018C131.381 265.612 131.515 267.211 131.597 268.81C131.752 271.845 131.826 274.876 131.816 277.914C131.806 281.028 131.744 284.138 131.576 287.248L131.53 288.081C131.377 290.783 131.12 293.797 129.836 296.159C129.369 297.018 128.099 296.766 127.829 295.897C126.943 293.053 127.398 289.682 127.625 286.769L127.801 284.497C127.976 282.224 128.142 279.95 128.275 277.675C128.456 274.562 128.605 271.446 128.749 268.331C128.796 267.319 128.846 266.307 128.899 265.296L128.981 263.779C129.051 262.509 129.046 261.117 129.573 259.944ZM29.9659 263.974L30.3581 263.595C31.562 262.417 33.0833 260.604 34.863 260.716C35.5727 260.761 36.0249 261.35 35.8777 262.048C35.5634 263.54 34.0408 264.314 32.9448 265.225C31.7441 266.223 30.6125 267.289 29.483 268.366C28.481 269.32 27.5174 270.302 26.5769 271.315L26.2252 271.696C25.8881 272.063 23.4874 274.234 23.747 274.797L23.7611 274.823C23.8333 274.93 23.713 275.079 23.5932 275.041C22.5565 274.714 22.6212 273.825 23.0131 272.925C23.7662 271.196 25.0851 269.596 26.2367 268.12C27.3853 266.646 28.6284 265.275 29.9659 263.974V263.974ZM133.329 220.608C132.528 218.714 129.574 218.754 127.898 218.867C123.676 219.152 119.108 220.22 115.351 222.193C111.457 224.238 108.833 227.515 106.486 231.138L106.376 231.309C104.088 234.864 101.885 239.073 98.3019 241.517C96.4772 242.763 94.3464 243.9 92.1324 244.392C91.9804 244.659 91.7342 244.871 91.4113 244.948L91.2612 244.982C90.6306 245.121 89.651 245.275 88.8049 245.183C88.8105 245.597 88.8061 246.008 88.8166 246.4C88.8464 247.523 88.8591 248.651 88.8591 249.776C88.8595 252.131 88.7329 254.491 88.8312 256.846C88.9184 258.93 89.2127 261.106 90.2133 262.969C90.9471 264.335 91.9157 265.239 93.085 266.102C95.9613 264.35 99.2137 263.282 102.515 262.478C106.507 261.507 110.594 260.859 114.496 259.542C116.373 258.908 118.179 258.078 119.814 256.951C121.55 255.755 122.876 254.136 124.24 252.552L124.453 252.306C125.846 250.71 127.365 249.183 129.332 248.317C131.027 247.572 133.26 247.439 134.742 246.285C135.516 245.682 135.581 244.806 135.663 243.909C134.714 244.045 133.709 243.827 132.764 243.717L132.274 243.659C131.379 243.553 130.506 243.436 129.625 243.209C129.462 243.167 129.462 242.92 129.625 242.878C130.666 242.609 131.697 242.495 132.764 242.37L133.014 242.339C133.979 242.212 134.994 242.021 135.94 242.234C136.11 241.588 136.355 240.971 136.699 240.353C137.182 239.485 138.096 238.501 138.22 237.488C138.257 237.185 138.186 236.828 138.043 236.56L137.994 236.469C137.934 236.361 137.863 236.253 137.759 236.186C137.748 236.199 137.723 236.215 137.67 236.231C136.942 236.461 136.306 236.104 135.969 235.555C134.537 235.732 132.975 235.673 131.632 235.732L130.274 235.798C128.824 235.864 127.307 235.893 125.944 235.6C125.753 235.559 125.696 235.243 125.886 235.161C127.562 234.445 129.595 234.216 131.389 233.941C132.391 233.787 133.401 233.67 134.406 233.534C135.075 233.444 135.785 233.295 136.479 233.259C138.217 231.096 137.28 227.683 134.861 226.752C133.98 227.139 133.187 226.914 132.225 226.831C131.264 226.749 130.3 226.693 129.335 226.697C127.401 226.706 125.352 227.214 123.438 226.995C123.126 226.959 122.837 226.545 123.147 226.292C124.612 225.097 126.713 224.707 128.573 224.452L128.959 224.4C129.583 224.319 130.341 224.199 131.128 224.128C131.306 223.781 131.625 223.519 132.105 223.454C132.247 223.435 132.391 223.423 132.534 223.411L132.531 223.397V223.397C133.701 223.341 133.65 221.366 133.329 220.608ZM53.2655 257.551C53.2448 257.583 53.2222 257.613 53.1981 257.642L53.161 257.685L53.3533 257.607L53.2655 257.551V257.551ZM153.737 216.376C148.815 215.847 143.885 215.958 138.948 216.1C138.553 217.392 137.179 218.492 135.847 218.533C136.89 220.12 136.998 222.268 136.266 223.951C137.819 224.569 139.157 225.679 139.969 227.26C141.095 229.452 140.948 231.89 139.835 233.916C140.785 234.776 141.346 236.172 141.289 237.488C141.227 238.955 140.352 240.209 139.625 241.424C138.839 242.738 138.813 243.895 138.571 245.366C138.218 247.52 136.765 248.826 134.896 249.642L134.995 250.033C135.477 251.908 136.077 253.887 137.454 255.259C139.227 257.023 141.976 257.007 144.318 257.119L144.43 257.124C146.575 257.231 148.718 257.357 150.861 257.478L152.469 257.568C154.936 257.704 157.306 257.72 159.321 256.089C162.61 253.427 164.865 249.021 166.292 245.121C169.287 236.935 169.323 227.951 167.948 219.424C163.337 217.939 158.552 216.893 153.737 216.376ZM112.801 229.958L112.837 229.96C113.851 230.076 114.547 230.896 114.795 231.869C115.155 233.284 114.978 234.563 115.845 235.84C116.737 237.153 117.285 238.204 117.414 239.826C117.467 240.494 117.443 241.159 117.592 241.813L117.699 242.271C117.814 242.759 117.908 243.229 117.851 243.753C117.799 244.231 117.566 244.603 117.086 244.756C115.524 245.256 114.317 244.105 113.913 242.649C113.565 241.392 114.03 239.893 113.538 238.712C113.266 238.058 112.763 237.51 112.479 236.851C112.198 236.198 112.056 235.516 112.011 234.806C111.925 233.463 113.113 231.85 112.451 230.633C112.309 230.374 112.469 229.95 112.801 229.958ZM92.0442 216.101C93.1024 215.886 94.3029 215.393 95.3464 215.803C95.8828 216.013 96.1478 216.667 95.6947 217.122C94.9078 217.91 93.7642 217.954 92.7044 218.14L92.6111 218.157C91.358 218.389 90.1026 218.608 88.8455 218.817C86.4805 219.208 84.1098 219.555 81.7308 219.849C79.2875 220.151 76.8372 220.42 74.3836 220.623L73.4337 220.701C71.3611 220.866 69.2045 220.991 67.1708 220.674C66.8753 220.628 66.9229 220.198 67.1708 220.122C69.3987 219.448 71.8426 219.267 74.1459 218.982C76.5946 218.678 79.0393 218.358 81.4775 217.977C83.9119 217.597 86.3431 217.189 88.7652 216.738C89.86 216.535 90.9531 216.322 92.0442 216.101ZM130.226 213.936C129.298 213.608 128.276 213.121 127.27 213.284C125.535 213.565 123.99 215.255 122.617 216.368L123.307 216.234C126.835 215.556 131.508 214.825 134.471 217.068C134.478 217.055 134.484 217.042 134.492 217.029C134.732 216.666 135.009 216.383 135.311 216.073C135.34 216.045 135.368 216.017 135.395 215.989L135.558 215.815L135.185 215.686C134.386 215.403 133.439 215.039 133.29 214.985L133.279 214.982C132.26 214.637 131.24 214.296 130.226 213.936ZM101.233 139.997C101.088 138.13 103.995 138.145 104.139 139.997C104.453 144.039 103.543 148.043 101.584 151.587C101.57 151.613 101.554 151.636 101.539 151.661C102.764 152.298 104.003 152.909 105.27 153.456C106.89 154.155 108.54 154.792 110.221 155.332C111.741 155.821 113.613 156.014 114.891 157.031C117.586 159.176 116.573 163.627 116.055 166.513L115.974 166.968C115.716 168.453 115.529 169.976 116.155 171.401C116.824 172.923 118.176 174.053 119.383 175.142L119.626 175.362C120.695 176.336 121.916 177.518 122.7 178.838C123.416 177.359 124.391 176.15 125.422 174.79C126.158 173.819 125.634 173.499 125.106 172.55C124.597 171.637 124.349 170.664 124.508 169.622C124.801 167.699 126.339 166.31 127.87 165.266C129.677 164.033 131.695 163.12 133.563 161.974C137.403 159.619 141.143 156.926 144.512 153.935C144.605 153.852 144.766 153.961 144.691 154.074C142.03 158.12 138.91 161.617 135.074 164.585C133.519 165.789 131.886 166.787 130.241 167.836L129.768 168.14C129.108 168.567 128.284 169.139 127.986 169.867C127.685 170.599 128.326 171.152 128.671 171.758C129.766 173.684 129.238 175.481 127.939 177.115L127.879 177.19C126.589 178.779 125.611 180.257 125.144 182.287C124.139 186.649 125.538 191.192 127.003 195.286L127.061 195.447C127.854 197.654 128.696 199.845 129.384 202.087L129.574 202.707C130.197 204.77 130.708 206.805 130.008 208.926C129.77 209.648 128.786 209.818 128.377 209.139C126.935 206.745 126.576 203.864 125.672 201.231C124.791 198.666 123.779 196.147 122.928 193.571C121.833 190.254 121.099 186.684 121.497 183.205C121.486 183.184 121.473 183.165 121.463 183.144L121.184 182.534C120.423 180.882 119.689 179.44 118.305 178.124C116.863 176.75 115.297 175.535 114.161 173.872C111.695 170.261 113.22 166.244 113.518 162.296L113.552 161.812C113.606 160.992 113.636 159.878 113.1 159.311C112.498 158.672 111.085 158.509 110.285 158.226C108.219 157.495 106.183 156.644 104.244 155.621C102.398 154.647 100.61 153.572 98.9451 152.312L98.1012 151.678C96.7698 150.673 95.3892 149.577 94.4968 148.21C94.3938 148.052 94.5688 147.798 94.7553 147.874C96.2449 148.478 97.606 149.439 98.9997 150.276C99.0214 150.225 99.0466 150.173 99.0751 150.121C100.8 147.002 101.509 143.545 101.233 139.997ZM148.818 161.372C149.412 159.745 152.117 159.87 152.009 161.804C151.926 163.289 151.295 164.629 150.719 165.978L150.657 166.122C150.062 167.527 149.374 168.846 148.551 170.134C146.979 172.596 145.137 174.88 143.169 177.036C141.386 178.991 139.045 180.186 136.348 179.987C135.211 179.904 134.064 179.615 133.068 179.047C131.885 178.373 130.6 176.348 129.091 176.838C128.945 176.886 128.809 176.672 128.935 176.571C130.678 175.168 132.655 177.343 134.323 177.867C136.836 178.656 139.416 177.784 141.034 175.752C142.723 173.632 144.277 171.257 145.697 168.948C146.418 167.775 147.075 166.558 147.644 165.304C148.217 164.038 148.347 162.663 148.818 161.372ZM144.767 151.359C144.693 151.134 144.973 150.92 145.17 151.049C146.315 151.794 147.307 152.778 148.363 153.641C149.535 154.598 150.715 155.536 151.913 156.46C153.66 157.806 151.634 160.285 150.096 158.814C147.991 156.802 145.686 154.171 144.767 151.359ZM138.481 143.484C138.946 141.691 141.697 142.43 141.296 144.202L141.283 144.256C140.524 147.183 141.605 150.163 143.914 152.06L143.999 152.129C145.459 153.297 143.39 155.34 141.944 154.183C138.787 151.657 137.474 147.367 138.481 143.484Z" fill="black"/>
<path fill-rule="evenodd" clip-rule="evenodd" d="M159.589 84.3822C159.01 76.8817 159.907 69.0202 157.02 61.891C151.987 50.0623 137.873 46.1183 126.931 41.615C122.547 40.3174 107.797 40.136 102.664 38.4187C91.0477 34.5319 88.2723 29.9008 79.0419 37.3014C77.4838 38.5656 76.5089 39.9397 75.7978 41.817L75.8271 41.825C75.6239 42.6077 75.8417 43.3886 76.2993 43.9851C72.2971 48.0833 70.6223 54.2273 72.6758 59.6826C79.377 73.8788 79.0619 81.5547 76.9027 96.8162C74.0831 111.064 80.5262 116.268 91.1968 124.021C90.7623 124.865 90.6722 125.986 91.2387 126.731C103.578 144.101 126.843 152.394 146.777 143.578C154.868 139.97 158.48 131.338 160.542 123.549C162.943 114.827 163.681 105.637 161.726 96.7525C160.938 92.6437 159.91 88.5645 159.589 84.3822Z" fill="#D08B5B"/>
<path fill-rule="evenodd" clip-rule="evenodd" d="M71.2122 63.105L78.549 68.0014L104.811 40.2656L96.0717 33.3747C96.0717 33.3747 80.2162 45.1139 77.0987 48.2122C73.9812 51.3105 71.2122 63.105 71.2122 63.105Z" fill="#9FD8E5"/>
<path fill-rule="evenodd" clip-rule="evenodd" d="M88.4153 1.28264C89.913 1.05734 91.0441 1.98825 91.5821 3.30034L91.6104 3.37099C91.7833 3.81745 91.9757 4.25171 92.1827 4.67865C95.9306 2.83671 101.279 3.31 103.651 7.04024C105.343 9.70435 104.311 12.8662 103.672 15.6913L103.254 17.5527C104.063 18.0689 104.674 18.9933 104.645 19.9504L104.642 20.0241L104.471 22.6199C105.012 22.071 105.506 21.4733 105.947 20.8365C106.251 20.2778 106.58 19.7289 106.933 19.1971C109.011 16.067 113.674 18.7872 111.96 22.1393C111.631 22.7858 111.261 23.3982 110.864 23.9886C110.416 24.8595 110.048 25.7549 109.766 26.6746C110.577 27.0284 111.2 27.814 111.266 28.9996C111.419 31.7686 109.968 34.079 107.659 35.5306C106.98 35.9575 106.278 36.0405 105.643 35.8819C105.531 36.0332 105.419 36.1844 105.311 36.3381C106.232 37.0871 107.062 37.941 107.776 38.8876C109.924 38.5655 112.084 38.4143 114.244 38.4094C116.884 37.1139 120.045 37.1408 122.882 37.6263C124.709 37.9385 126.462 38.546 128.259 38.9827C130.154 39.4414 132.078 39.4585 133.995 39.7707C136.41 40.1635 138.529 41.2809 139.861 43.0643C141.325 43.1082 142.864 43.7083 144.14 44.5232C147.111 46.4212 150.065 48.3461 153.029 50.2564C154.166 50.9898 154.592 52.1605 154.383 53.4664L154.368 53.5499L154.268 54.0915L154.503 54.4249C155.41 55.708 156.397 57.052 156.984 58.4683C158.07 60.037 159.051 61.6813 159.921 63.3769C161.092 65.6555 162.059 68.0708 162.714 70.5495C162.877 71.1765 163.04 71.8084 163.148 72.4475C163.301 73.3502 163.065 74.0504 162.936 74.9165C162.775 76.0143 162.717 77.1268 162.546 78.2271C162.432 78.9566 161.813 79.3152 161.165 79.3347C161.409 81.1913 161.584 83.0601 161.752 84.9142C161.988 87.5637 162.149 90.2205 162.288 92.8773C163.004 93.919 164.468 94.7436 165.524 95.029C166.988 95.4218 168.522 94.9949 169.906 94.4948C170.775 94.18 171.489 95.2754 171.065 96.0073C169.733 98.3055 166.883 98.2958 164.726 97.2784C163.812 96.849 163.011 96.2269 162.417 95.4169C162.454 96.1879 162.493 96.9588 162.531 97.7322L162.568 98.4327C163.007 106.613 163.954 115.075 162.419 123.175C159.763 137.206 148.172 147.889 134.014 148.719C126.584 149.154 120.397 146.956 117.321 145.729C114.244 144.503 115.44 142.002 117.576 142.717C121.255 143.949 128.014 145.783 134.063 144.991C148.319 143.124 160.408 135.986 159.166 105.241C158.99 100.882 158.447 96.5197 158.331 92.16C158.219 87.8979 158.26 83.6334 158.072 79.3737L158.01 77.9204C157.937 76.2222 157.858 74.5161 157.731 72.8159C157.578 72.1572 157.451 71.4888 157.264 70.8422C156.755 69.0833 156.09 67.373 155.265 65.7409C155.082 65.88 154.877 65.98 154.656 66.019C152.973 66.3216 151.395 66.2362 149.819 65.5335C149.084 65.2091 148.436 64.7773 147.832 64.243C147.545 63.9917 147.352 63.7477 147.201 63.494C146.439 63.5062 145.677 63.2769 145.199 62.7279C144.655 62.1023 144.564 61.4561 144.778 60.8578L144.8 60.7982L144.746 60.7786C144.103 62.4449 142.823 63.9112 141.417 64.9017C139.196 66.4728 136.418 66.9266 133.753 66.9681C130.812 67.012 127.709 66.5582 124.806 66.0947C124.039 65.9727 123.277 65.8336 122.529 65.6458C122.5 65.675 122.471 65.7092 122.439 65.7385C119.948 68.1269 116.443 68.7417 113.282 67.3779C111.456 66.5899 109.924 65.3213 108.57 63.8673C108.55 64.6284 108.511 65.3896 108.446 66.1435L108.418 66.4428C108.284 67.8468 108.024 69.3362 106.965 70.3494C105.253 71.9913 102.769 71.3326 100.794 70.264C100.796 70.3153 100.796 70.369 100.796 70.4226C101.33 72.2377 101.865 74.0553 102.401 75.8728L102.517 76.26C102.906 77.5506 103.334 78.8428 103.451 80.1935C103.675 82.7746 101.96 85.3241 99.0965 84.458C97.5943 84.0053 96.3908 82.74 95.236 81.7265L94.5084 81.0961C96.3909 87.2612 97.6962 93.6458 97.818 100.079C97.8253 100.428 97.5257 100.691 97.1945 100.704C96.4201 100.735 95.5872 100.582 94.8079 100.272C94.7641 100.269 94.7203 100.267 94.674 100.26C93.3443 100.067 92.1096 99.5863 91.021 98.8764C91.2719 99.6742 91.3839 100.53 91.3181 101.426C91.3011 101.643 90.9626 101.719 90.9139 101.48C90.2856 98.3836 86.6691 96.0439 83.5519 96.6368C80.2058 97.2735 77.7413 100.157 77.1373 103.439C76.4895 106.964 77.7291 111.041 80.0256 113.761C81.0825 115.015 82.4731 116.061 84.1242 116.325C84.8792 116.444 85.6634 116.403 86.3964 116.188C86.7081 116.096 87.0003 115.966 87.2974 115.844C87.7309 115.669 88.2375 115.642 88.6466 115.456C89.5745 115.039 90.5072 115.895 90.0372 116.849C89.628 117.681 89.2603 118.242 88.5809 118.672C89.1312 119.345 89.6305 120.282 89.8156 120.533C90.7605 121.812 91.72 123.019 92.7964 124.188C93.8923 125.374 95.088 126.457 96.3519 127.459L96.8832 127.88C98.1006 128.847 99.1608 129.744 100.02 131.131C100.697 132.227 99.8198 133.712 98.551 133.695C94.5815 133.639 91.6956 130.146 89.6402 127.094C89.348 126.657 89.0728 126.196 88.8171 125.722C88.7245 125.871 88.6223 126.01 88.5078 126.137L88.7343 126.747C89.4064 128.543 86.5108 129.716 85.6707 128.04C85.0594 126.825 84.3507 125.669 83.5617 124.576C83.0965 124.51 82.6411 124.227 82.3879 123.861C81.7474 122.931 81.029 121.992 80.4226 121.002C80.0865 120.682 79.7407 120.375 79.3876 120.075C79.2853 120.165 79.1806 120.255 79.0807 120.35C78.6375 121.363 78.0895 122.287 77.4101 123.158L77.2644 123.344C75.9628 124.988 74.2673 126.67 72.1693 127.072C71.5288 127.194 70.9127 126.396 71.4801 125.886C72.9486 124.564 74.685 123.663 76.039 122.187C76.7061 121.46 77.3186 120.659 77.8453 119.82L77.9653 119.626C78.053 119.482 78.1431 119.338 78.2357 119.191C77.6244 118.774 77.0131 118.355 76.4019 117.935C74.7191 119.375 72.5278 120.034 70.6666 121.227L70.4816 121.348C68.7988 122.475 67.0259 119.982 68.3751 118.613C69.8623 117.11 71.1038 115.318 72.4214 113.647C71.8018 112.504 71.5086 111.152 71.3988 109.786C71.3554 109.399 71.3216 109.012 71.2877 108.625C70.3428 108.64 69.393 108.315 68.5894 107.757L68.285 107.54C67.3084 107.852 66.2832 108.003 65.3017 107.976C62.993 107.908 62.0481 105.266 63.4923 103.595C64.9656 101.887 67.5446 101.514 69.5879 102.343C69.6536 102.309 69.7218 102.272 69.7876 102.236C69.6902 101.787 69.7118 101.38 69.8226 101.022L69.7905 100.804C69.3412 100.113 69.0458 99.3248 68.9337 98.4917C68.8451 97.8317 68.8631 97.1777 69.0156 96.526C69.0662 96.3091 69.1717 96.0844 69.2523 95.8583C69.0862 95.4382 68.9885 95.0039 68.9583 94.5672C68.9118 94.5118 68.8656 94.455 68.8217 94.3935C67.8079 92.9675 68.0127 91.2493 68.9776 90.0953C68.982 90.0219 68.9888 89.9484 68.9988 89.8755C68.9423 89.7481 68.8904 89.6196 68.8432 89.4895C67.9004 88.5369 67.2083 87.3905 67.3374 85.9699C67.4131 85.134 67.756 84.3816 68.275 83.8193C68.1829 83.5465 68.1742 83.2306 68.2857 82.9669C67.4575 80.76 67.5622 78.1019 68.1583 75.6337C68.0268 75.258 67.9586 74.8506 67.9733 74.4188C68.0414 72.5866 69.6244 70.9032 71.4996 70.9252C71.7253 70.9271 71.9367 70.9567 72.1398 70.9998L72.1425 70.9562C72.2144 70.4063 72.3653 69.8981 72.5857 69.4421C72.4774 69.4029 72.377 69.3465 72.2891 69.2716C71.0875 69.9137 69.8161 70.4046 68.483 70.739C67.5028 70.985 66.4987 69.8688 67.108 68.9471C67.3907 68.5194 67.7027 68.1354 68.0388 67.7846C67.561 67.7873 67.0758 67.8197 66.5851 67.8829C65.7035 67.9976 64.7197 67.395 64.1474 66.5802C63.4363 67.273 62.7227 67.9634 62.0092 68.6539C60.2022 70.408 57.4722 69.1174 57.1873 66.8046C56.6491 66.6607 56.1474 66.4167 55.7066 66.0678C52.8573 67.3072 49.7912 67.9878 46.657 68.1171C44.4068 68.2099 43.0917 65.5848 44.1437 63.7306C44.85 62.4864 45.7267 61.369 46.7373 60.3981C45.169 60.8787 43.5495 61.2251 41.896 61.4471C41.0022 61.5667 39.7383 60.825 39.3803 60.0028C38.0116 56.841 38.1285 53.5451 39.7042 50.4686C39.7651 50.3467 39.8332 50.2296 39.899 50.1124C40.0622 49.705 40.2399 49.3025 40.4323 48.9073C38.4938 46.8823 38.3258 43.8718 39.3705 41.3516C38.9517 40.671 38.7909 39.8512 39.0759 39.1096C39.8868 36.9749 41.0558 35.0036 42.5316 33.3105C42.3903 33.0373 42.2661 32.7469 42.1614 32.4347C41.331 29.9096 42.2929 26.8625 44.2339 25.1035C45.4539 23.9959 46.8567 23.3323 48.3544 22.9078C48.9851 21.7904 49.7961 20.7829 50.741 19.9338C50.7775 19.8533 50.8141 19.7728 50.8555 19.6923C52.3264 16.916 55.0052 15.4278 57.8765 15.0838C57.9885 13.9982 58.7191 12.9613 59.7809 12.6246C60.0731 11.6854 60.509 10.7876 61.1081 9.97272C62.0506 8.68945 63.6165 8.08442 65.0923 8.9261C65.9008 9.3872 66.6752 9.9166 67.401 10.5021C67.7269 10.349 68.0964 10.2499 68.5134 10.2183L68.6186 10.2118L71.0198 10.0898C72.0256 9.64336 73.029 9.17495 74.0347 8.71873C74.6387 8.2186 75.3133 7.80142 76.0487 7.49158C76.8816 7.14271 77.734 6.9451 78.5888 6.87923C79.2828 6.65234 79.9818 6.45229 80.6929 6.29615C82.3635 5.9302 84.1121 5.72527 85.846 5.74234C85.8815 5.29275 85.8991 4.83778 85.8957 4.37743L85.8923 4.14681C85.8533 2.67081 87.0296 1.49246 88.4153 1.28264ZM86.7324 119.374C86.4938 119.426 86.2527 119.467 86.0116 119.496C86.0847 119.677 86.1577 119.857 86.2283 120.038C86.4232 120.148 86.6204 120.253 86.8177 120.35C86.7592 120.019 86.7251 119.684 86.7324 119.374ZM74.2206 115.65L74.0587 115.948C74.0324 115.997 74.0066 116.046 73.9812 116.093C74.3245 116.066 74.6704 116.074 75.0113 116.113L75.0103 116.076C74.9665 116.061 74.9227 116.048 74.8808 116.027C74.6455 115.914 74.4268 115.787 74.2206 115.65ZM80.9827 102.024C83.1373 102.149 84.9627 102.48 86.9221 103.424L87.0904 103.507C88.8219 104.368 91.6859 105.959 91.4448 108.24C91.3766 108.889 90.9066 109.572 90.1662 109.521C88.1376 109.382 86.9784 107.332 85.6049 106.054C84.2192 104.766 82.5169 103.441 80.839 102.555C80.6018 102.431 80.6952 102.036 80.9533 102.023L80.9827 102.024ZM71.2122 71.9694C70.6959 71.9865 70.8688 72.489 71.1343 72.0694C71.1562 72.0352 71.183 72.0011 71.2122 71.9694ZM99.0809 38.4187C94.1913 38.5475 89.2703 41.4397 85.6073 44.3631C82.4207 46.9065 79.6691 49.9317 77.2325 53.1923C76.6057 54.8161 76.0675 56.4739 75.6128 58.1438C75.3133 59.2465 75.1258 60.3615 74.8749 61.4739L74.797 61.815C74.6 62.1839 74.4536 62.5808 74.347 62.9909C74.7909 63.4369 75.3669 63.7563 76.001 63.9078C76.2053 63.9565 76.3751 64.0622 76.5093 64.2022C77.0197 63.3488 77.4659 62.4481 77.7255 61.4932L77.735 61.4491C78.7161 59.8391 79.7818 58.2792 80.9242 56.7727C84.0755 52.6131 87.5458 48.8219 91.7175 45.6674C94.881 43.2765 98.4171 41.4029 102.177 40.1855C101.257 39.4416 100.212 38.8532 99.0809 38.4187Z" fill="black"/>
<path fill-rule="evenodd" clip-rule="evenodd" d="M139.631 131.51C141.476 131.254 143.46 130.209 145.222 131.058C146.045 131.455 146.436 132.811 145.879 133.566C145.029 134.717 144.151 134.908 142.77 135.019C141.735 135.102 140.695 135.108 139.662 134.988L139.4 134.956C137.558 134.719 135.643 134.205 134.216 132.967C133.924 132.714 134.074 132.167 134.448 132.088C136.143 131.731 137.916 131.749 139.631 131.51ZM137.46 127.264C137.459 127.249 137.482 127.249 137.483 127.264C137.527 128.318 137.824 129.295 138.371 130.197C138.379 130.21 138.359 130.221 138.352 130.208C137.804 129.306 137.505 128.319 137.46 127.264ZM143.275 105.512C145.118 106.632 147.926 109.243 145.943 112.019C143.61 114.467 140.25 111.661 138.594 110.391C137.059 109.408 135.334 111.938 136.758 113.086C148.722 121.941 153.578 105.805 144.207 104.196C143.175 104.018 142.792 105.166 143.275 105.512ZM152.707 92.9805C153.14 92.9805 153.554 93.1273 153.931 93.399C154.302 93.6664 154.638 94.0567 154.917 94.5435C155.447 95.4646 155.778 96.7365 155.778 98.1428C155.778 99.5491 155.447 100.821 154.917 101.742C154.638 102.229 154.302 102.619 153.931 102.887C153.554 103.158 153.14 103.305 152.707 103.305C152.274 103.305 151.861 103.158 151.484 102.887C151.113 102.619 150.777 102.229 150.497 101.742C149.968 100.821 149.637 99.5491 149.637 98.1428C149.637 96.7365 149.968 95.4646 150.497 94.5435C150.777 94.0567 151.113 93.6664 151.484 93.399C151.861 93.1273 152.274 92.9805 152.707 92.9805ZM132.667 94.4149L132.83 94.384C133.78 94.2112 134.261 94.2694 135.088 94.917C135.71 95.4037 135.532 96.3622 135.088 96.8741C134.315 97.766 133.56 97.608 132.5 97.6421L132.426 97.6448C131.543 97.6806 130.66 97.7057 129.776 97.7192C129.535 97.7231 129.293 97.7221 129.051 97.7236C129.077 99.9585 127.788 101.66 126.09 102.954C124.993 103.791 123.605 102.825 123.214 101.784C122.89 100.922 122.82 99.8629 122.988 98.9195C123.05 98.5717 123.18 98.1942 123.378 97.8724L123.434 97.786L123.425 97.6626C123.423 97.6321 123.425 97.6025 123.424 97.5721C121.848 97.4763 120.281 97.3183 118.715 97.1198L118.193 97.0522C116.856 96.8753 114.893 96.8184 113.811 95.9492C113.777 95.9214 113.789 95.8606 113.825 95.8414C114.42 95.5212 115.023 95.5393 115.688 95.5098L115.784 95.5052C116.507 95.4678 117.229 95.4367 117.952 95.4119L118.675 95.3893C120.526 95.3363 122.378 95.2466 124.226 95.1482C124.548 95.1312 124.869 95.1109 125.191 95.0912C125.527 94.9501 125.885 94.8657 126.239 94.8501C126.531 94.8369 126.813 94.8774 127.078 94.9616C127.753 94.9095 128.428 94.8527 129.102 94.7916L129.776 94.7291C130.728 94.6386 131.728 94.5991 132.667 94.4149ZM144.349 77.6641C146.383 76.6651 148.855 76.6407 150.95 77.4675L151.088 77.5237C153.204 78.4012 155.753 80.4281 155.201 82.9528C154.696 85.2637 151.07 84.8721 150.886 82.6879C149.716 81.0665 147.09 80.7108 145.44 81.7418C144.439 82.3673 143.752 83.4205 143.283 84.4827C142.882 85.3874 142.807 86.5045 142.192 87.2925C142.172 87.3181 142.132 87.3227 142.103 87.3159C140.27 86.8919 140.227 83.9797 140.54 82.5671C140.994 80.5134 142.452 78.5966 144.349 77.6641Z" fill="black"/>
</g>
</svg>
