<svg width="704" height="477" viewBox="0 0 704 477" fill="none" xmlns="http://www.w3.org/2000/svg">
<path d="M54.7739 120.938H223.309L299.15 196.877H435.383L481.027 149.064H593.384" stroke="#BBFFFF" stroke-width="2" stroke-linecap="round" stroke-linejoin="round"/>
<path d="M131.317 277.736H242.27L431.169 88.5942H690.292" stroke="#BBFFFF" stroke-width="2" stroke-linecap="round" stroke-linejoin="round"/>
<ellipse cx="264.038" cy="33.7503" rx="33.707" ry="33.7503" fill="url(#paint0_linear_2_76)"/>
<ellipse cx="112.357" cy="120.939" rx="4.21338" ry="4.21878" fill="#BBFFFF"/>
<path d="M95.5033 119.532L112.357 116.72V125.157L95.5033 122.345V119.532Z" fill="url(#paint1_linear_2_76)"/>
<path d="M210.669 133.595L254.207 177.189" stroke="#BBFFFF" stroke-width="2" stroke-linecap="round" stroke-linejoin="round"/>
<path d="M258.421 181.408L269.656 192.658" stroke="#BBFFFF" stroke-width="2" stroke-linecap="round" stroke-linejoin="round"/>
<path d="M476.112 279.846L519.65 323.44" stroke="#BBFFFF" stroke-width="2" stroke-linecap="round" stroke-linejoin="round"/>
<path d="M523.863 327.659L535.099 338.909" stroke="#BBFFFF" stroke-width="2" stroke-linecap="round" stroke-linejoin="round"/>
<path d="M492.965 167.233H617.26" stroke="#BBFFFF" stroke-width="2" stroke-linecap="round" stroke-linejoin="round"/>
<path d="M623.58 167.233H639.47" stroke="#BBFFFF" stroke-width="2" stroke-linecap="round" stroke-linejoin="round"/>
<path d="M646.052 167.233H679.056" stroke="#BBFFFF" stroke-width="2" stroke-linecap="round" stroke-linejoin="round"/>
<path d="M94.8011 259.104H166.429" stroke="#BBFFFF" stroke-width="2" stroke-linecap="round" stroke-linejoin="round"/>
<path d="M172.749 259.104H188.638" stroke="#BBFFFF" stroke-width="2" stroke-linecap="round" stroke-linejoin="round"/>
<path d="M195.22 259.104H228.225" stroke="#BBFFFF" stroke-width="2" stroke-linecap="round" stroke-linejoin="round"/>
<ellipse cx="542.122" cy="149.064" rx="4.21338" ry="4.21878" fill="#BBFFFF"/>
<path d="M525.268 147.657L542.121 144.845V153.283L525.268 150.47V147.657Z" fill="url(#paint2_linear_2_76)"/>
<ellipse cx="644.647" cy="88.5945" rx="4.21338" ry="4.21878" fill="#BBFFFF"/>
<path d="M627.793 87.1883L644.647 84.3757V92.8133L627.793 90.0008V87.1883Z" fill="url(#paint3_linear_2_76)"/>
<path d="M74.4363 361.409H233.14L339.177 255.236H478.218L536.503 313.596H653.776" stroke="#BBFFFF" stroke-width="2" stroke-linecap="round" stroke-linejoin="round"/>
<ellipse cx="200.838" cy="361.409" rx="4.21338" ry="4.21878" fill="#BBFFFF"/>
<path d="M183.984 360.003L200.838 357.19V365.628L183.984 362.815V360.003Z" fill="url(#paint4_linear_2_76)"/>
<path d="M238.185 165.448C238.185 165.448 214.575 214.776 237.621 293.651C237.793 294.24 238.001 294.817 238.185 295.393C255.665 347.776 440.975 333.432 473.055 315.628C473.055 315.628 508.139 236.875 476.108 162.699C476.12 162.699 346.157 104.917 238.185 165.448Z" fill="#73FDAA"/>
<g style="mix-blend-mode:soft-light">
<mask id="mask0_2_76" style="mask-type:alpha" maskUnits="userSpaceOnUse" x="227" y="137" width="263" height="195">
<path d="M238.185 165.448C238.185 165.448 214.575 214.776 237.621 293.651C237.793 294.24 238.001 294.817 238.185 295.393C255.665 347.776 440.975 333.432 473.055 315.628C473.055 315.628 508.139 236.875 476.108 162.699C476.12 162.699 346.157 104.917 238.185 165.448Z" fill="#315EFB"/>
</mask>
<g mask="url(#mask0_2_76)">
<g style="mix-blend-mode:soft-light">
<path d="M229.008 190.444C229.008 190.444 221.918 230.402 237.451 297.588C237.451 297.588 244.042 332.966 342.908 338.674C429.844 343.696 474.474 319.43 474.474 319.43C474.474 319.43 491.671 289.855 493.612 275.426C493.612 275.426 386.673 318.497 281.217 282.996C221.295 262.825 229.008 190.444 229.008 190.444Z" fill="url(#paint5_linear_2_76)"/>
</g>
</g>
</g>
<path d="M486.559 267.464L487.679 262.246C487.679 262.246 465.64 266.464 445.882 264.879C426.124 263.294 420.654 256.539 417.675 247.992C417.675 247.992 416.818 267.037 444.037 269.72C471.611 272.451 486.559 267.464 486.559 267.464Z" fill="white"/>
<path d="M491.497 262.496C491.497 262.496 497.626 245.317 493.201 218.849C493.201 218.849 476.272 209.29 445.013 212.088C413.754 214.886 411.143 237.206 417.089 253.747C423.671 272.005 465.178 268.987 491.497 262.496Z" fill="#010010"/>
<circle cx="439.03" cy="240.873" r="16.6119" fill="white"/>
<path d="M454.06 240.873C454.06 249.174 447.331 255.903 439.03 255.903C430.729 255.903 424 249.174 424 240.873C424 240.873 431.91 244.038 442.194 237.709C454.06 230.407 454.06 240.873 454.06 240.873Z" fill="url(#paint6_linear_2_76)"/>
<path fill-rule="evenodd" clip-rule="evenodd" d="M433.875 238.392C435.583 238.392 436.968 236.997 436.968 235.276C436.968 233.555 435.583 232.16 433.875 232.16C432.167 232.16 430.782 233.555 430.782 235.276C430.782 236.997 432.167 238.392 433.875 238.392Z" fill="#73FDAA"/>
<path fill-rule="evenodd" clip-rule="evenodd" d="M444.184 248.78C445.893 248.78 447.277 247.385 447.277 245.664C447.277 243.943 445.893 242.548 444.184 242.548C442.476 242.548 441.092 243.943 441.092 245.664C441.092 247.385 442.476 248.78 444.184 248.78Z" fill="#73FDAA"/>
<path fill-rule="evenodd" clip-rule="evenodd" d="M444.106 233.2C442.354 233.2 440.934 234.631 440.934 236.396C440.934 238.161 442.354 239.592 444.106 239.592C445.858 239.592 447.278 238.161 447.278 236.396C447.278 234.631 445.858 233.2 444.106 233.2Z" fill="#73FDAA"/>
<path fill-rule="evenodd" clip-rule="evenodd" d="M433.955 243.426C432.203 243.426 430.783 244.857 430.783 246.622C430.783 248.387 432.203 249.818 433.955 249.818C435.707 249.818 437.127 248.387 437.127 246.622C437.127 244.857 435.707 243.426 433.955 243.426Z" fill="#73FDAA"/>
<path d="M265.777 52.5408C274.612 17.1314 343.788 3.00982 377.271 0.375195C432.492 -3.96992 428.285 30.4099 377.271 52.5408C360.651 59.7511 349.924 91.5333 315.213 100.491C301.767 103.961 254.733 96.8025 265.777 52.5408Z" fill="url(#paint7_linear_2_76)"/>
<circle r="4.21608" transform="matrix(0.706653 0.70756 -0.706653 0.70756 510.671 287.73)" fill="#BBFFFF"/>
<path d="M499.747 274.804L513.65 284.747L507.692 290.714L497.76 276.792L499.747 274.804Z" fill="url(#paint8_linear_2_76)"/>
<path d="M2.28123 294.049C-5.90206 275.007 9.8875 267.271 18.8052 265.783C65.2294 265.783 99.0646 294.049 122.67 299.999C146.276 305.95 178.537 304.462 221.027 327.521C263.517 350.579 272.173 371.406 294.991 392.977C317.81 414.548 336.695 401.159 368.169 403.391C399.643 405.622 410.659 427.937 368.169 445.045C325.679 462.153 305.22 445.789 272.173 445.045C239.125 444.301 195.848 407.854 178.537 383.307C161.226 358.761 134.473 337.934 99.0646 334.215C63.6561 330.496 12.5103 317.851 2.28123 294.049Z" fill="url(#paint9_linear_2_76)"/>
<path d="M389.877 390.77L475.142 450.026L337.304 477L389.877 390.77Z" fill="url(#paint10_linear_2_76)"/>
<path fill-rule="evenodd" clip-rule="evenodd" d="M620.021 367.796C621.156 361.173 627.451 356.707 634.076 357.845C640.701 358.984 645.148 365.295 644.013 371.918C642.878 378.541 636.584 383.007 629.958 381.868C623.333 380.73 618.886 374.418 620.021 367.796ZM630.704 368.633L624.917 367.638L623.874 369.703L629.661 370.697L630.704 368.633ZM639.069 366.313C639.564 366.398 640.18 366.74 640.392 367.415C640.604 368.09 640.462 368.394 640.089 369.186L640.088 369.187C639.716 369.981 638.538 372.351 638.079 373.184C637.62 374.018 636.927 374.665 636.128 374.965L636.057 374.992C635.31 375.274 634.997 375.392 634.013 375.223L623.625 373.438L624.763 371.19L634.533 372.868L636.807 368.368L627.115 366.703L628.254 364.454L639.069 366.313Z" fill="#73FDAA"/>
<path fill-rule="evenodd" clip-rule="evenodd" d="M548.838 398.028C554.863 388.695 567.339 385.997 576.678 392.041C586.017 398.085 588.683 410.584 582.658 419.917C576.633 429.25 564.157 431.949 554.818 425.904C545.479 419.86 542.813 407.362 548.838 398.028ZM556.145 408.407L558.126 408.817L553.387 413.293L567.682 422.544L571.213 419.201L562.641 413.653L566.081 410.39L568.075 410.781L570.804 408.212L568.829 407.834L574.961 402.037L569.267 398.352L560.908 406.227L558.889 405.834L556.145 408.407L556.145 408.407Z" fill="#73FDAA"/>
<path d="M579.64 240.089C581.194 227.2 588.833 222.668 592.458 222.013C608.382 226.729 627.026 213.369 641.008 217.298C654.991 221.228 665.866 240.089 672.469 246.376C679.072 252.663 712.863 258.95 701.211 278.598C689.559 298.245 671.692 278.598 644.115 273.096C616.539 267.595 618.481 285.278 606.052 290.779C593.623 296.28 583.913 287.636 579.64 278.598C575.368 269.56 577.698 256.2 579.64 240.089Z" fill="url(#paint11_linear_2_76)"/>
<path fill-rule="evenodd" clip-rule="evenodd" d="M188.103 448.97C175.745 436.234 176.038 415.877 188.758 403.502C201.478 391.128 221.809 391.422 234.167 404.158C246.525 416.894 246.233 437.251 233.512 449.626C220.792 462 200.461 461.706 188.103 448.97Z" fill="white"/>
<path fill-rule="evenodd" clip-rule="evenodd" d="M185.294 448.97C172.938 436.235 173.229 415.877 185.949 403.502C198.67 391.128 219.002 391.424 231.359 404.158C243.715 416.893 243.424 437.251 230.704 449.626C217.983 462 197.651 461.705 185.294 448.97ZM223.97 442.691L200.371 438.532L216.109 434.589L216.111 434.59L220.505 418.946L223.97 442.691ZM192.679 410.442L218.677 417.076L214.191 432.613L198.55 436.656L192.679 410.442Z" fill="#73FDAA"/>
<path fill-rule="evenodd" clip-rule="evenodd" d="M591.704 199.941C598.142 192.037 609.766 190.854 617.661 197.303C625.556 203.752 626.734 215.39 620.295 223.294C613.857 231.197 602.233 232.38 594.338 225.931C586.443 219.483 585.265 207.844 591.704 199.941Z" fill="white"/>
<path fill-rule="evenodd" clip-rule="evenodd" d="M588.895 198.534C595.328 190.637 606.957 189.448 614.852 195.897C622.747 202.345 623.92 213.99 617.486 221.887C611.053 229.785 599.424 230.974 591.529 224.525C583.634 218.076 582.461 206.432 588.895 198.534ZM595.035 220.218L595.842 206.458L599.132 215.19L599.131 215.191L608.339 216.665L595.035 220.218ZM611.342 200.202L609.283 215.497L600.131 213.963L596.791 205.293L611.342 200.202Z" fill="#73FDAA"/>
<path fill-rule="evenodd" clip-rule="evenodd" d="M97.2009 213.478C92.9326 204.229 96.9724 193.26 106.234 189V189C115.495 184.74 126.471 188.802 130.74 198.051V198.051C135.008 207.3 130.968 218.269 121.707 222.528V222.528C112.445 226.788 101.469 222.727 97.2009 213.478V213.478ZM119.378 217.487L107.371 210.717L116.66 211.598L116.661 211.599L122.03 203.975L119.378 217.487ZM108.559 194.045L121.396 202.613L115.997 210.161L106.741 209.354L108.559 194.045Z" fill="#73FDAA"/>
<path d="M556.868 203.908H568.104" stroke="#28BC00" stroke-width="2" stroke-linecap="round" stroke-linejoin="round"/>
<path d="M574.424 215.158H544.93" stroke="#28BC00" stroke-width="2" stroke-linecap="round" stroke-linejoin="round"/>
<path d="M145.362 202.501H164.322" stroke="#28BC00" stroke-width="2" stroke-linecap="round" stroke-linejoin="round"/>
<path d="M179.771 213.752H150.277" stroke="#28BC00" stroke-width="2" stroke-linecap="round" stroke-linejoin="round"/>
<path fill-rule="evenodd" clip-rule="evenodd" d="M126.672 78.6822C121.879 70.4943 124.618 59.9258 132.813 55.1159C141.007 50.306 151.555 53.076 156.349 61.2639C161.142 69.4519 158.403 80.0203 150.209 84.8303C142.014 89.6402 131.466 86.8702 126.672 78.6822ZM148.719 70.6652L142.788 74.1462C142.964 73.3125 143.113 72.4735 143.236 71.6303C143.573 69.5083 143.896 67.3841 144.205 65.258C144.231 65.0843 144.27 64.9037 144.31 64.7208C144.42 64.2035 144.533 63.6717 144.378 63.2513C144.105 62.4863 143.659 61.7798 143.2 61.0528C143.01 60.7558 142.826 60.4557 142.646 60.1525L138.966 62.3127L137.456 59.7338L134.506 61.4651L136.054 64.1092L132.677 66.0912L134.527 69.2499L140.215 65.9114C140.145 66.3139 140.076 66.6909 140.009 67.0568C139.924 67.5223 139.843 67.9694 139.766 68.4273C139.43 70.5494 139.107 72.6736 138.798 74.7998C138.777 74.9888 138.738 75.1893 138.699 75.3919C138.604 75.8815 138.506 76.386 138.656 76.7889C138.929 77.5552 139.376 78.2635 139.829 78.9806C140.012 79.2692 140.194 79.5588 140.368 79.8546L144.018 77.7121L145.547 80.3243L148.618 78.5217C148.331 78.0972 148.048 77.6704 147.767 77.2415C147.49 76.8205 147.213 76.3995 146.919 75.9665L150.568 73.8246L148.718 70.6654L148.719 70.6652Z" fill="#73FDAA"/>
<path d="M158.002 92.8132L165.024 99.8445" stroke="#28BC00" stroke-width="2" stroke-linecap="round" stroke-linejoin="round"/>
<path d="M511.223 73.8287C511.223 52.498 528.515 35.1565 549.846 35.1565V35.1565C571.177 35.1565 588.469 52.498 588.469 73.8287V73.8287C588.469 95.1594 571.177 112.501 549.846 112.501V112.501C528.515 112.501 511.223 95.1594 511.223 73.8287V73.8287Z" fill="white" fill-opacity="0.25"/>
<path d="M234.545 390.237L256.314 368.44" stroke="#28BC00" stroke-width="2" stroke-linecap="round" stroke-linejoin="round"/>
<path d="M248.589 392.347L278.785 362.112" stroke="#28BC00" stroke-width="2" stroke-linecap="round" stroke-linejoin="round"/>
<path d="M495.774 125.86L511.925 109.688" stroke="#28BC00" stroke-width="2" stroke-linecap="round" stroke-linejoin="round"/>
<path d="M523.161 113.907L496.477 140.626" stroke="#28BC00" stroke-width="2" stroke-linecap="round" stroke-linejoin="round"/>
<path d="M161.513 83.6726L176.962 99.1415" stroke="#28BC00" stroke-width="2" stroke-linecap="round" stroke-linejoin="round"/>
<path d="M535.099 369.847L544.93 379.691" stroke="#28BC00" stroke-width="2" stroke-linecap="round" stroke-linejoin="round"/>
<path d="M516.841 366.331L540.717 390.237" stroke="#28BC00" stroke-width="2" stroke-linecap="round" stroke-linejoin="round"/>
<path d="M615.856 345.94L621.474 351.565" stroke="#28BC00" stroke-width="2" stroke-linecap="round" stroke-linejoin="round"/>
<path d="M601.811 344.534L611.642 354.378" stroke="#28BC00" stroke-width="2" stroke-linecap="round" stroke-linejoin="round"/>
<path fill-rule="evenodd" clip-rule="evenodd" d="M521.887 52.4102C530.589 36.8732 550.256 31.3246 565.794 40.053V40.053C581.332 48.7814 586.858 68.4814 578.156 84.0185V84.0185C569.454 99.5555 549.787 105.104 534.249 96.3757V96.3757C518.71 87.6474 513.185 67.9473 521.887 52.4102V52.4102ZM538.99 87.9034L536.237 63.9638L544.531 78.0104L544.53 78.012L560.831 77.7793L538.99 87.9034ZM561.046 48.5235L562.106 75.4835L545.882 75.5968L537.52 61.6726L561.046 48.5235Z" fill="#73FDAA"/>
<defs>
<linearGradient id="paint0_linear_2_76" x1="304.541" y1="94.4463" x2="230.205" y2="-9.75376" gradientUnits="userSpaceOnUse">
<stop stop-color="#28BC00"/>
<stop offset="1" stop-color="#28BC00" stop-opacity="0"/>
</linearGradient>
<linearGradient id="paint1_linear_2_76" x1="104.632" y1="120.939" x2="90.5877" y2="120.939" gradientUnits="userSpaceOnUse">
<stop stop-color="#73FDAA" stop-opacity="0.89"/>
<stop offset="1" stop-color="#EEEEFF" stop-opacity="0"/>
</linearGradient>
<linearGradient id="paint2_linear_2_76" x1="534.397" y1="149.064" x2="520.352" y2="149.064" gradientUnits="userSpaceOnUse">
<stop stop-color="#73FDAA" stop-opacity="0.89"/>
<stop offset="1" stop-color="#EEEEFF" stop-opacity="0"/>
</linearGradient>
<linearGradient id="paint3_linear_2_76" x1="636.922" y1="88.5945" x2="622.878" y2="88.5945" gradientUnits="userSpaceOnUse">
<stop stop-color="#73FDAA" stop-opacity="0.89"/>
<stop offset="1" stop-color="#EEEEFF" stop-opacity="0"/>
</linearGradient>
<linearGradient id="paint4_linear_2_76" x1="193.113" y1="361.409" x2="179.069" y2="361.409" gradientUnits="userSpaceOnUse">
<stop stop-color="#73FDAA" stop-opacity="0.89"/>
<stop offset="1" stop-color="#EEEEFF" stop-opacity="0"/>
</linearGradient>
<linearGradient id="paint5_linear_2_76" x1="504.675" y1="312.223" x2="153.571" y2="273.093" gradientUnits="userSpaceOnUse">
<stop/>
<stop offset="1" stop-opacity="0"/>
</linearGradient>
<linearGradient id="paint6_linear_2_76" x1="455.305" y1="252.101" x2="415.601" y2="248.545" gradientUnits="userSpaceOnUse">
<stop stop-color="#DADAFF"/>
<stop offset="1" stop-color="#EEEEFF" stop-opacity="0"/>
</linearGradient>
<linearGradient id="paint7_linear_2_76" x1="423.465" y1="82.7273" x2="221.507" y2="63.83" gradientUnits="userSpaceOnUse">
<stop stop-color="#DADAFF"/>
<stop offset="1" stop-color="#EEEEFF" stop-opacity="0"/>
</linearGradient>
<linearGradient id="paint8_linear_2_76" x1="505.209" y1="282.262" x2="495.265" y2="272.331" gradientUnits="userSpaceOnUse">
<stop stop-color="#73FDAA" stop-opacity="0.89"/>
<stop offset="1" stop-color="#EEEEFF" stop-opacity="0"/>
</linearGradient>
<linearGradient id="paint9_linear_2_76" x1="412.469" y1="418.599" x2="-105.946" y2="350.627" gradientUnits="userSpaceOnUse">
<stop stop-color="#DADAFF"/>
<stop offset="1" stop-color="#EEEEFF" stop-opacity="0"/>
</linearGradient>
<linearGradient id="paint10_linear_2_76" x1="494.736" y1="476.507" x2="409.232" y2="338.489" gradientUnits="userSpaceOnUse">
<stop stop-color="#28BC00"/>
<stop offset="1" stop-color="#28BC00" stop-opacity="0"/>
</linearGradient>
<linearGradient id="paint11_linear_2_76" x1="708.872" y1="278.61" x2="542.345" y2="261.447" gradientUnits="userSpaceOnUse">
<stop stop-color="#DADAFF"/>
<stop offset="1" stop-color="#EEEEFF" stop-opacity="0"/>
</linearGradient>
</defs>
</svg>
