<svg width="766" height="237" viewBox="0 0 766 237" fill="none" xmlns="http://www.w3.org/2000/svg">
<path d="M630.321 118.846C626.964 116.624 623.261 115.044 619.755 113.069C617.484 111.785 615.064 110.649 613.089 109.02C609.732 106.255 610.423 100.824 613.929 98.4537C618.965 95.0962 627.309 96.9725 628.198 103.836C628.198 103.984 628.346 104.082 628.494 104.082H636.098C636.296 104.082 636.444 103.934 636.394 103.737C635.999 98.9969 634.172 95.0469 630.815 92.5287C627.606 90.1094 623.952 88.8256 620.051 88.8256C599.956 88.8256 598.129 110.106 608.942 116.821C610.176 117.611 620.792 122.944 624.544 125.264C628.297 127.585 629.482 131.831 627.852 135.189C626.371 138.25 622.52 140.373 618.669 140.126C614.472 139.879 611.213 137.608 610.077 134.053C609.88 133.411 609.781 132.177 609.781 131.634C609.781 131.486 609.633 131.337 609.485 131.337H601.239C601.091 131.337 600.943 131.486 600.943 131.634C600.943 137.608 602.424 140.916 606.473 143.928C610.275 146.792 614.422 147.977 618.718 147.977C629.976 147.977 635.802 141.607 636.987 134.991C638.024 128.523 636.098 122.697 630.321 118.846Z" fill="white"/>
<path d="M272.303 89.9119H268.649H264.65C264.502 89.9119 264.403 90.0106 264.354 90.1094L257.589 112.427C257.491 112.723 257.096 112.723 256.997 112.427L250.232 90.1094C250.183 89.9612 250.084 89.9119 249.936 89.9119H245.937H242.283H237.346C237.197 89.9119 237.049 90.06 237.049 90.2081V147.187C237.049 147.335 237.197 147.483 237.346 147.483H245.591C245.739 147.483 245.887 147.335 245.887 147.187V103.885C245.887 103.539 246.381 103.49 246.48 103.786L253.294 126.252L253.787 127.832C253.837 127.98 253.936 128.029 254.084 128.029H260.404C260.552 128.029 260.651 127.931 260.7 127.832L261.194 126.252L268.007 103.786C268.106 103.441 268.6 103.539 268.6 103.885V147.187C268.6 147.335 268.748 147.483 268.896 147.483H277.142C277.29 147.483 277.438 147.335 277.438 147.187V90.2081C277.438 90.06 277.29 89.9119 277.142 89.9119H272.303Z" fill="white"/>
<path d="M504.069 89.9119C503.921 89.9119 503.822 90.0106 503.773 90.1094L497.009 112.427C496.91 112.723 496.515 112.723 496.416 112.427L489.652 90.1094C489.602 89.9612 489.504 89.9119 489.356 89.9119H476.814C476.666 89.9119 476.518 90.06 476.518 90.2081V147.187C476.518 147.335 476.666 147.483 476.814 147.483H485.06C485.208 147.483 485.356 147.335 485.356 147.187V103.885C485.356 103.539 485.85 103.49 485.949 103.786L492.762 126.252L493.256 127.832C493.306 127.98 493.404 128.029 493.552 128.029H499.872C500.021 128.029 500.119 127.931 500.169 127.832L500.662 126.252L507.476 103.786C507.575 103.441 508.069 103.539 508.069 103.885V147.187C508.069 147.335 508.217 147.483 508.365 147.483H516.611C516.759 147.483 516.907 147.335 516.907 147.187V90.2081C516.907 90.06 516.759 89.9119 516.611 89.9119H504.069Z" fill="white"/>
<path d="M397.716 89.9119H382.36H374.114H358.759C358.611 89.9119 358.463 90.06 358.463 90.2081V97.3181C358.463 97.4662 358.611 97.6144 358.759 97.6144H373.818V147.187C373.818 147.335 373.966 147.483 374.114 147.483H382.36C382.508 147.483 382.656 147.335 382.656 147.187V97.6144H397.716C397.864 97.6144 398.012 97.4662 398.012 97.3181V90.2081C398.012 90.06 397.913 89.9119 397.716 89.9119Z" fill="white"/>
<path d="M446.35 147.483H453.855C454.052 147.483 454.201 147.286 454.151 147.088L438.647 89.9119C438.598 89.7637 438.499 89.7144 438.351 89.7144H435.487H430.451H427.587C427.439 89.7144 427.341 89.8131 427.291 89.9119L411.787 147.088C411.738 147.286 411.886 147.483 412.084 147.483H419.589C419.737 147.483 419.836 147.384 419.885 147.286L424.378 130.646C424.427 130.498 424.526 130.449 424.674 130.449H441.264C441.412 130.449 441.511 130.547 441.561 130.646L446.054 147.286C446.103 147.384 446.251 147.483 446.35 147.483ZM426.649 122.302L432.673 100.034C432.772 99.7375 433.167 99.7375 433.266 100.034L439.289 122.302C439.339 122.499 439.191 122.697 438.993 122.697H426.946C426.748 122.697 426.6 122.499 426.649 122.302Z" fill="white"/>
<path d="M574.33 147.483H581.835C582.032 147.483 582.181 147.286 582.131 147.088L566.627 89.9119C566.578 89.7637 566.479 89.7144 566.331 89.7144H563.467H558.431H555.567C555.419 89.7144 555.321 89.8131 555.271 89.9119L539.767 147.088C539.718 147.286 539.866 147.483 540.064 147.483H547.569C547.717 147.483 547.816 147.384 547.865 147.286L552.358 130.646C552.407 130.498 552.506 130.449 552.654 130.449H569.244C569.392 130.449 569.491 130.547 569.541 130.646L574.034 147.286C574.083 147.384 574.182 147.483 574.33 147.483ZM554.629 122.302L560.653 100.034C560.752 99.7375 561.147 99.7375 561.246 100.034L567.269 122.302C567.319 122.499 567.171 122.697 566.973 122.697H554.926C554.728 122.697 554.58 122.499 554.629 122.302Z" fill="white"/>
<path d="M310.914 139.04V121.364C310.914 121.216 311.062 121.067 311.211 121.067H333.182C333.331 121.067 333.479 120.919 333.479 120.771V113.661C333.479 113.513 333.331 113.365 333.182 113.365H311.211C311.062 113.365 310.914 113.217 310.914 113.069V97.96C310.914 97.8119 311.062 97.6637 311.211 97.6637H336.194C336.342 97.6637 336.491 97.5156 336.491 97.3675V90.2575C336.491 90.1094 336.342 89.9612 336.194 89.9612H310.914H302.372C302.224 89.9612 302.076 90.1094 302.076 90.2575V97.6637V113.414V121.117V139.386V147.187C302.076 147.335 302.224 147.483 302.372 147.483H310.914H337.231C337.379 147.483 337.527 147.335 337.527 147.187V139.682C337.527 139.534 337.379 139.386 337.231 139.386H311.161C311.013 139.336 310.914 139.237 310.914 139.04Z" fill="white"/>
<path d="M705.667 146.989L677.129 117.512C677.03 117.414 677.03 117.216 677.129 117.117L702.804 90.455C703.001 90.2575 702.853 89.9612 702.606 89.9612H692.089C691.991 89.9612 691.941 90.0106 691.892 90.06L670.117 112.674C669.92 112.871 669.624 112.723 669.624 112.476V90.2575C669.624 90.1094 669.476 89.9612 669.327 89.9612H661.082C660.934 89.9612 660.786 90.1094 660.786 90.2575V147.236C660.786 147.384 660.934 147.532 661.082 147.532H669.327C669.476 147.532 669.624 147.384 669.624 147.236V122.154C669.624 121.907 669.969 121.759 670.117 121.956L694.805 147.434C694.854 147.483 694.953 147.532 695.002 147.532H705.519C705.717 147.483 705.865 147.138 705.667 146.989Z" fill="white"/>
<path d="M180.712 59.25L130.794 96.2813L140.077 74.4575L180.712 59.25Z" fill="#E17726" stroke="#E17726" stroke-width="0.49375" stroke-linecap="round" stroke-linejoin="round"/>
<path d="M65.57 59.25L115.044 96.6269L106.206 74.4575L65.57 59.25Z" fill="#E27625" stroke="#E27625" stroke-width="0.49375" stroke-linecap="round" stroke-linejoin="round"/>
<path d="M162.74 145.113L149.458 165.456L177.898 173.306L186.045 145.558L162.74 145.113Z" fill="#E27625" stroke="#E27625" stroke-width="0.49375" stroke-linecap="round" stroke-linejoin="round"/>
<path d="M60.2869 145.558L68.3844 173.306L96.775 165.456L83.5425 145.113L60.2869 145.558Z" fill="#E27625" stroke="#E27625" stroke-width="0.49375" stroke-linecap="round" stroke-linejoin="round"/>
<path d="M95.2444 110.748L87.3444 122.697L115.488 123.981L114.55 93.615L95.2444 110.748Z" fill="#E27625" stroke="#E27625" stroke-width="0.49375" stroke-linecap="round" stroke-linejoin="round"/>
<path d="M151.038 110.748L131.436 93.2694L130.794 123.981L158.938 122.697L151.038 110.748Z" fill="#E27625" stroke="#E27625" stroke-width="0.49375" stroke-linecap="round" stroke-linejoin="round"/>
<path d="M96.775 165.456L113.809 157.21L99.145 145.755L96.775 165.456Z" fill="#E27625" stroke="#E27625" stroke-width="0.49375" stroke-linecap="round" stroke-linejoin="round"/>
<path d="M132.473 157.21L149.458 165.456L147.138 145.755L132.473 157.21Z" fill="#E27625" stroke="#E27625" stroke-width="0.49375" stroke-linecap="round" stroke-linejoin="round"/>
<path d="M149.458 165.456L132.473 157.21L133.856 168.27L133.708 172.961L149.458 165.456Z" fill="#D5BFB2" stroke="#D5BFB2" stroke-width="0.49375" stroke-linecap="round" stroke-linejoin="round"/>
<path d="M96.775 165.456L112.575 172.961L112.476 168.27L113.809 157.21L96.775 165.456Z" fill="#D5BFB2" stroke="#D5BFB2" stroke-width="0.49375" stroke-linecap="round" stroke-linejoin="round"/>
<path d="M112.871 138.447L98.75 134.3L108.724 129.708L112.871 138.447Z" fill="#233447" stroke="#233447" stroke-width="0.49375" stroke-linecap="round" stroke-linejoin="round"/>
<path d="M133.411 138.447L137.559 129.708L147.582 134.3L133.411 138.447Z" fill="#233447" stroke="#233447" stroke-width="0.49375" stroke-linecap="round" stroke-linejoin="round"/>
<path d="M96.775 165.456L99.2437 145.113L83.5425 145.557L96.775 165.456Z" fill="#CC6228" stroke="#CC6228" stroke-width="0.49375" stroke-linecap="round" stroke-linejoin="round"/>
<path d="M147.039 145.113L149.458 165.456L162.74 145.557L147.039 145.113Z" fill="#CC6228" stroke="#CC6228" stroke-width="0.49375" stroke-linecap="round" stroke-linejoin="round"/>
<path d="M158.938 122.697L130.794 123.981L133.411 138.447L137.559 129.708L147.582 134.3L158.938 122.697Z" fill="#CC6228" stroke="#CC6228" stroke-width="0.49375" stroke-linecap="round" stroke-linejoin="round"/>
<path d="M98.75 134.3L108.724 129.708L112.871 138.447L115.488 123.981L87.3444 122.697L98.75 134.3Z" fill="#CC6228" stroke="#CC6228" stroke-width="0.49375" stroke-linecap="round" stroke-linejoin="round"/>
<path d="M87.3444 122.697L99.145 145.755L98.75 134.3L87.3444 122.697Z" fill="#E27525" stroke="#E27525" stroke-width="0.49375" stroke-linecap="round" stroke-linejoin="round"/>
<path d="M147.582 134.3L147.137 145.755L158.938 122.697L147.582 134.3Z" fill="#E27525" stroke="#E27525" stroke-width="0.49375" stroke-linecap="round" stroke-linejoin="round"/>
<path d="M115.488 123.981L112.871 138.447L116.179 155.531L116.92 133.016L115.488 123.981Z" fill="#E27525" stroke="#E27525" stroke-width="0.49375" stroke-linecap="round" stroke-linejoin="round"/>
<path d="M130.794 123.981L129.412 132.967L130.103 155.531L133.411 138.447L130.794 123.981Z" fill="#E27525" stroke="#E27525" stroke-width="0.49375" stroke-linecap="round" stroke-linejoin="round"/>
<path d="M133.411 138.448L130.103 155.531L132.473 157.21L147.138 145.755L147.582 134.3L133.411 138.448Z" fill="#F5841F" stroke="#F5841F" stroke-width="0.49375" stroke-linecap="round" stroke-linejoin="round"/>
<path d="M98.75 134.3L99.145 145.755L113.809 157.21L116.179 155.531L112.871 138.448L98.75 134.3Z" fill="#F5841F" stroke="#F5841F" stroke-width="0.49375" stroke-linecap="round" stroke-linejoin="round"/>
<path d="M133.708 172.961L133.856 168.27L132.572 167.184H113.711L112.476 168.27L112.575 172.961L96.775 165.456L102.305 169.998L113.513 177.75H132.72L143.978 169.998L149.458 165.456L133.708 172.961Z" fill="#C0AC9D" stroke="#C0AC9D" stroke-width="0.49375" stroke-linecap="round" stroke-linejoin="round"/>
<path d="M132.473 157.21L130.103 155.531H116.179L113.809 157.21L112.476 168.27L113.711 167.184H132.572L133.856 168.27L132.473 157.21Z" fill="#161616" stroke="#161616" stroke-width="0.49375" stroke-linecap="round" stroke-linejoin="round"/>
<path d="M182.836 98.7006L187.033 78.2594L180.713 59.25L132.473 95.0469L151.038 110.748L177.256 118.401L183.033 111.637L180.515 109.81L184.514 106.156L181.453 103.786L185.453 100.725L182.836 98.7006Z" fill="#763E1A" stroke="#763E1A" stroke-width="0.49375" stroke-linecap="round" stroke-linejoin="round"/>
<path d="M59.25 78.2594L63.4963 98.7006L60.7806 100.725L64.8294 103.786L61.7681 106.156L65.7675 109.81L63.2494 111.637L69.0263 118.401L95.2444 110.748L113.809 95.0469L65.57 59.25L59.25 78.2594Z" fill="#763E1A" stroke="#763E1A" stroke-width="0.49375" stroke-linecap="round" stroke-linejoin="round"/>
<path d="M177.256 118.401L151.038 110.748L158.938 122.697L147.137 145.755L162.74 145.557H186.045L177.256 118.401Z" fill="#F5841F" stroke="#F5841F" stroke-width="0.49375" stroke-linecap="round" stroke-linejoin="round"/>
<path d="M95.2444 110.748L69.0262 118.401L60.2869 145.557H83.5425L99.145 145.755L87.3444 122.697L95.2444 110.748Z" fill="#F5841F" stroke="#F5841F" stroke-width="0.49375" stroke-linecap="round" stroke-linejoin="round"/>
<path d="M130.794 123.981L132.473 95.0469L140.077 74.4575H106.206L113.809 95.0469L115.488 123.981L116.13 133.066L116.179 155.531H130.103L130.152 133.066L130.794 123.981Z" fill="#F5841F" stroke="#F5841F" stroke-width="0.49375" stroke-linecap="round" stroke-linejoin="round"/>
</svg>
