<svg width="29" height="33" viewBox="0 0 29 33" fill="none" xmlns="http://www.w3.org/2000/svg">
<path d="M12.5053 2.2322C12.6864 -0.239664 16.3136 -0.23967 16.4947 2.23219L16.9824 8.89155C17.0856 10.3 18.5765 11.1608 19.8479 10.5459L25.859 7.63866C28.0902 6.55952 29.9038 9.70078 27.8536 11.0935L22.3303 14.8456C21.1621 15.6392 21.1621 17.3608 22.3303 18.1544L27.8536 21.9065C29.9038 23.2992 28.0902 26.4405 25.859 25.3613L19.8479 22.4541C18.5765 21.8392 17.0856 22.7 16.9824 24.1084L16.4947 30.7678C16.3136 33.2397 12.6864 33.2397 12.5053 30.7678L12.0176 24.1084C11.9144 22.7 10.4235 21.8392 9.15211 22.4541L3.14102 25.3613C0.909794 26.4405 -0.903801 23.2992 1.14637 21.9065L6.66968 18.1544C7.83788 17.3608 7.83787 15.6392 6.66968 14.8456L1.14636 11.0935C-0.903807 9.70078 0.9098 6.55953 3.14103 7.63866L9.15211 10.5459C10.4235 11.1608 11.9144 10.3 12.0176 8.89156L12.5053 2.2322Z" fill="white"/>
</svg>
