<svg width="76" height="86" viewBox="0 0 76 86" fill="none" xmlns="http://www.w3.org/2000/svg">
<path d="M36.0053 2.2322C36.1864 -0.23967 39.8136 -0.239672 39.9947 2.23219L42.2049 32.4081C42.3081 33.8166 43.799 34.6774 45.0704 34.0625L72.3086 20.8887C74.5398 19.8095 76.3535 22.9508 74.3033 24.3435L49.2753 41.3456C48.1071 42.1392 48.1071 43.8608 49.2753 44.6544L74.3033 61.6565C76.3535 63.0492 74.5399 66.1905 72.3086 65.1113L45.0704 51.9375C43.799 51.3226 42.3081 52.1834 42.2049 53.5919L39.9947 83.7678C39.8136 86.2397 36.1864 86.2397 36.0053 83.7678L33.7951 53.5919C33.6919 52.1834 32.201 51.3226 30.9296 51.9375L3.69136 65.1113C1.46014 66.1905 -0.353466 63.0492 1.6967 61.6565L26.7247 44.6544C27.8929 43.8608 27.8929 42.1392 26.7247 41.3456L1.69671 24.3435C-0.353464 22.9508 1.46013 19.8095 3.69136 20.8887L30.9296 34.0625C32.201 34.6774 33.6919 33.8166 33.7951 32.4081L36.0053 2.2322Z" fill="white"/>
</svg>
